<svg xmlns="http://www.w3.org/2000/svg" width="50" height="66" viewBox="0 0 50 66">
	<path fill="#fff" d="M37.025 25.273c0-6.614-5.366-11.977-11.974-11.977-6.628 0-11.987 5.362-11.987 11.977 0 6.618 5.359 11.974 11.987 11.974 6.608 0 11.974-5.355 11.974-11.974z"/>
	<path fill="#012b5d" d="M25.051 1.326C11.815 1.326 1.09 12.051 1.09 25.273S25.051 65.2 25.051 65.2s23.947-26.704 23.947-39.927S38.277 1.326 25.051 1.326zM13.064 25.273c0-6.614 5.359-11.977 11.987-11.977 6.608 0 11.974 5.362 11.974 11.977 0 6.618-5.366 11.974-11.974 11.974-6.628 0-11.987-5.355-11.987-11.974z"/>
</svg>